<?xml version="1.0" standalone="no"?>
<!DOCTYPE svg PUBLIC "-//W3C//DTD SVG 20010904//EN"
 "http://www.w3.org/TR/2001/REC-SVG-20010904/DTD/svg10.dtd">
<svg version="1.0" xmlns="http://www.w3.org/2000/svg"
 width="880.000000pt" height="880.000000pt" viewBox="0 0 880.000000 880.000000"
 preserveAspectRatio="xMidYMid meet">
<metadata>
Created by potrace 1.11, written by Peter Selinger 2001-2013
</metadata>
<g transform="translate(0.000000,880.000000) scale(0.100000,-0.100000)"
fill="#000000" stroke="none">
<path d="M2739 7681 c-12 -16 -21 -32 -20 -35 0 -3 -8 -15 -19 -26 -11 -11
-22 -31 -26 -45 -3 -14 -10 -25 -15 -25 -5 0 -9 -9 -9 -19 0 -11 -4 -23 -10
-26 -10 -6 -23 -49 -36 -120 -18 -93 -8 -795 12 -826 3 -5 7 -28 10 -51 9 -81
14 -110 25 -130 6 -11 13 -32 15 -46 3 -15 9 -28 15 -30 5 -2 9 -11 9 -19 0
-12 3 -13 13 -4 11 9 13 4 8 -26 -5 -32 -14 -42 -50 -62 -45 -25 -151 -124
-151 -141 0 -6 -8 -19 -17 -29 -51 -55 -72 -81 -65 -81 4 0 -2 -7 -12 -15 -11
-8 -17 -15 -13 -15 3 0 -1 -16 -9 -35 -8 -19 -11 -35 -8 -35 4 0 2 -6 -3 -12
-5 -7 -11 -32 -12 -56 -1 -23 -11 -77 -21 -119 -29 -121 -24 -217 16 -353 19
-63 36 -122 39 -130 2 -8 4 -16 5 -17 3 -3 7 -19 9 -31 0 -5 9 -18 19 -30 45
-54 52 -63 52 -70 0 -10 49 -46 67 -48 9 -2 41 -4 72 -5 61 -2 122 -29 145
-64 8 -12 16 -44 17 -71 2 -30 14 -70 31 -103 15 -29 28 -61 28 -71 0 -10 7
-34 16 -55 8 -21 13 -44 10 -52 -3 -8 -1 -11 4 -8 8 5 33 -43 34 -65 0 -3 8
-14 18 -24 10 -11 18 -26 18 -33 0 -7 4 -13 9 -13 11 0 42 -77 42 -105 0 -11
-2 -34 -5 -52 -3 -17 -7 -62 -11 -99 -3 -36 -8 -71 -11 -75 -3 -5 -2 -9 3 -9
15 0 21 -154 9 -210 -5 -19 -10 -98 -11 -175 -2 -77 -7 -153 -11 -170 -5 -16
-8 -178 -8 -360 1 -398 1 -393 1 -530 0 -60 2 -121 5 -135 4 -14 9 -47 13 -75
4 -27 12 -56 18 -63 6 -8 12 -23 14 -34 5 -31 45 -118 54 -118 5 0 8 -3 7 -7
-2 -9 41 -95 51 -103 3 -3 22 -26 41 -52 19 -26 40 -48 45 -48 6 0 17 -9 25
-20 8 -11 18 -20 22 -20 4 0 44 -36 89 -80 44 -44 84 -78 89 -75 5 3 15 -2 23
-10 9 -8 19 -15 24 -15 5 0 15 -9 23 -20 8 -11 19 -20 25 -20 5 0 28 -16 49
-36 39 -35 105 -69 183 -94 23 -7 51 -20 61 -29 25 -22 70 -49 114 -67 21 -9
35 -20 32 -25 -3 -5 -2 -8 3 -7 12 4 103 -44 103 -54 0 -5 4 -7 9 -3 6 3 14
-3 20 -12 6 -10 11 -15 11 -11 0 4 12 1 27 -7 15 -8 30 -12 35 -9 4 3 8 0 8
-6 0 -6 4 -9 10 -5 5 3 17 1 27 -4 48 -26 153 -71 166 -71 9 0 18 -4 22 -9 3
-5 20 -13 38 -16 17 -4 50 -16 72 -26 102 -47 199 -70 309 -74 100 -3 139 10
196 63 16 15 39 34 51 42 44 28 79 68 79 89 0 12 4 21 9 21 6 0 8 9 6 20 -2
11 0 20 6 20 5 0 9 6 9 14 0 8 6 16 12 18 12 4 114 -16 148 -30 8 -3 19 -6 23
-6 4 -1 11 -7 16 -14 5 -8 10 -13 12 -11 7 4 112 -23 149 -39 34 -14 67 -22
103 -25 9 -1 17 -4 17 -8 0 -9 45 -22 122 -33 15 -2 53 -16 84 -30 40 -19 73
-26 116 -26 33 0 74 -7 96 -17 35 -16 122 -26 122 -14 0 3 19 5 42 3 24 -1
120 -5 213 -8 153 -6 173 -5 188 10 9 10 17 14 17 9 0 -4 6 -1 13 8 7 9 32 28
57 44 59 37 66 45 76 86 4 19 9 39 10 44 13 48 16 62 16 75 0 8 4 20 8 25 4 6
8 48 9 94 2 52 10 108 23 150 12 36 22 73 23 81 7 48 15 121 17 158 1 23 5 42
9 42 4 0 6 73 3 163 -4 162 -5 341 -2 492 2 75 -1 95 -21 171 -5 17 -9 82 -10
143 -2 118 2 133 51 185 17 19 22 31 19 49 0 4 3 7 9 7 5 0 16 12 24 28 8 15
16 26 18 24 1 -2 16 1 31 7 16 6 35 11 43 11 8 0 14 4 14 9 0 9 25 18 155 57
33 9 76 26 95 38 66 38 145 76 158 76 7 0 10 4 7 10 -3 6 1 7 9 4 9 -3 16 -1
16 5 0 6 11 16 25 21 14 5 25 13 25 18 0 4 10 8 22 9 11 1 25 8 29 15 5 7 9 9
9 3 0 -7 3 -7 8 0 4 6 24 25 45 43 21 17 34 32 30 32 -4 0 -1 6 8 13 9 7 17
15 17 20 4 20 37 73 53 85 10 7 24 19 32 27 8 8 26 17 41 21 14 3 26 10 26 14
0 4 11 11 25 14 14 4 23 11 20 16 -3 6 -1 10 5 10 6 0 8 5 5 10 -3 5 1 10 10
10 9 0 13 4 10 10 -3 6 -1 10 5 10 15 0 50 61 50 87 0 12 -6 28 -12 35 -20 21
-20 38 -3 82 17 41 13 112 -6 101 -5 -4 -9 -1 -9 5 0 21 -174 178 -192 173 -4
-2 -8 2 -8 8 0 12 -26 40 -36 38 -3 0 -16 7 -28 17 -12 11 -29 20 -37 22 -7 2
-16 7 -19 10 -3 4 -18 14 -35 22 -16 8 -32 17 -35 21 -3 3 -20 11 -37 18 -18
8 -33 17 -33 22 0 5 -11 14 -25 19 -14 5 -25 14 -25 20 0 5 -3 9 -7 8 -10 -3
-96 53 -106 69 -4 7 -12 13 -18 13 -5 0 -28 12 -50 27 -23 15 -57 28 -79 29
-27 1 -45 10 -67 33 -17 17 -35 31 -42 31 -6 0 -11 5 -11 10 0 6 -7 10 -15 10
-8 0 -15 4 -15 10 0 5 -3 9 -7 8 -5 -1 -30 12 -57 30 -43 27 -70 36 -102 31
-4 0 -10 3 -13 8 -11 14 -99 73 -110 73 -6 0 -11 3 -11 8 0 4 -23 18 -50 31
-28 14 -50 29 -50 35 0 5 -3 6 -6 3 -6 -6 -60 19 -74 33 -15 15 -82 37 -127
42 -7 1 -13 5 -13 10 0 5 -4 6 -10 3 -5 -3 -10 -2 -10 4 0 5 -26 15 -57 21
-69 14 -183 49 -200 63 -7 5 -13 7 -13 4 0 -3 -32 6 -71 19 -39 13 -78 24 -88
24 -9 0 -40 9 -70 20 -29 10 -69 22 -88 25 -19 3 -44 10 -55 16 -11 6 -35 13
-52 16 -17 3 -35 6 -41 8 -28 6 -84 15 -120 19 -22 2 -74 11 -115 19 -41 9
-91 18 -110 21 -19 3 -60 11 -90 20 -74 20 -201 38 -350 51 -36 3 -81 8 -100
11 -19 3 -66 7 -105 10 -90 7 -133 20 -140 45 -4 10 -10 19 -14 19 -5 0 -14
14 -21 30 -7 17 -16 30 -19 30 -12 0 -4 64 8 68 6 2 11 10 11 17 0 7 4 15 10
17 5 2 10 47 11 101 l2 98 55 87 c31 48 59 89 62 92 18 15 50 70 54 93 6 35
-8 44 -89 52 -92 9 -107 9 -116 -7 -5 -7 -9 -9 -9 -4 0 17 -29 -29 -30 -46 0
-10 -4 -18 -8 -18 -5 0 -9 -6 -10 -12 0 -7 -6 -31 -11 -53 -6 -22 -14 -56 -17
-75 -8 -50 -33 -150 -45 -181 -13 -34 -44 -31 -174 16 -87 32 -107 36 -155 30
-137 -16 -178 -17 -186 -4 -4 7 -7 46 -6 85 2 73 -27 184 -49 184 -5 0 -9 7
-9 15 0 9 -7 18 -15 21 -8 3 -17 14 -20 24 -8 25 -52 37 -160 44 -49 3 -103 8
-120 12 -16 3 -36 7 -42 7 -7 0 -13 3 -13 7 0 3 -29 13 -65 20 -36 7 -65 16
-65 20 0 10 -43 11 -85 0 -22 -5 -76 -11 -120 -13 -44 -3 -91 -7 -104 -10 -43
-11 -95 -29 -137 -48 -46 -20 -88 -26 -119 -14 -14 5 -16 4 -6 -3 7 -5 9 -12
4 -15 -6 -4 -15 5 -21 19 -10 20 -9 26 2 30 11 4 16 39 6 39 -1 0 -3 14 -4 30
-4 51 -18 115 -25 115 -4 0 -8 17 -9 37 -2 21 -6 40 -10 43 -4 3 -8 30 -10 60
-2 30 -8 73 -14 95 -12 46 -17 605 -6 605 5 0 7 3 6 8 -1 4 11 32 27 62 16 30
29 57 30 60 0 3 9 20 18 37 10 18 17 35 17 38 -1 16 15 62 26 76 12 14 19 53
15 87 -2 24 -50 13 -72 -17z m1 -1436 c14 -19 14 -19 -2 -6 -10 7 -18 18 -18
24 0 6 1 8 3 6 1 -2 9 -13 17 -24z"/>
<path d="M5472 7277 c-12 -6 -22 -14 -22 -19 0 -4 -6 -8 -14 -8 -8 0 -16 -3
-18 -7 -1 -5 -34 -24 -71 -43 -37 -19 -85 -51 -106 -70 -21 -19 -58 -51 -81
-70 -83 -68 -96 -97 -55 -124 14 -9 25 -14 25 -10 0 4 7 1 16 -6 12 -11 15
-11 12 0 -2 8 3 14 9 15 7 0 20 11 30 25 38 54 115 121 170 145 31 15 62 32
67 39 6 7 36 32 68 55 36 27 55 48 53 59 -2 9 -4 20 -4 23 -1 9 -56 6 -79 -4z"/>
<path d="M4970 6838 c-52 -26 -66 -39 -109 -101 -18 -26 -36 -47 -41 -47 -6 0
-10 -5 -10 -11 0 -19 -41 -70 -51 -63 -5 3 -8 0 -7 -8 2 -7 -3 -12 -10 -10 -8
1 -11 -2 -7 -8 3 -5 1 -10 -4 -10 -6 0 -11 -5 -11 -10 0 -6 -10 -21 -23 -33
-13 -12 -26 -30 -30 -40 -4 -10 -12 -15 -17 -12 -6 4 -9 2 -8 -3 2 -5 -13 -25
-33 -45 -36 -36 -45 -66 -25 -79 6 -4 32 -8 57 -8 25 0 49 -3 53 -7 4 -5 11
-8 14 -9 4 0 24 -5 45 -11 43 -13 120 -8 125 7 2 6 9 7 14 4 7 -4 8 -2 4 4 -3
6 0 14 8 19 8 4 15 10 15 13 0 3 5 18 11 34 6 16 15 49 20 73 6 24 23 70 39
101 27 53 51 125 50 146 0 5 3 12 8 15 14 11 33 50 33 70 0 56 -35 66 -110 29z"/>
<path d="M1378 6065 c-5 -5 -30 -10 -158 -30 -14 -2 -47 -5 -75 -6 -27 -1 -67
-11 -87 -21 -21 -10 -43 -18 -50 -18 -7 0 -30 -9 -50 -19 -19 -11 -39 -17 -44
-13 -4 4 -4 1 0 -5 4 -7 3 -13 -2 -13 -13 0 -5 -78 10 -98 25 -33 65 -27 109
16 23 24 57 45 84 53 25 7 45 17 45 20 0 9 47 20 107 24 27 1 62 8 78 15 49
19 64 21 185 21 90 0 128 -4 172 -20 43 -15 87 -20 169 -22 64 -1 130 -8 157
-16 26 -8 71 -16 100 -19 29 -2 67 -11 84 -20 46 -24 88 -35 88 -23 0 6 4 8 9
5 4 -3 6 6 3 19 -4 25 -37 52 -69 59 -10 1 -43 14 -73 28 -57 26 -138 45 -225
53 -27 2 -70 10 -95 16 -45 12 -462 24 -472 14z"/>
<path d="M2755 4553 c-17 -9 -33 -20 -36 -25 -3 -5 -8 -8 -10 -6 -3 1 -11 -3
-19 -9 -8 -7 -30 -25 -47 -40 -48 -41 -57 -48 -73 -51 -8 -2 -17 -7 -20 -11
-6 -10 -66 -41 -88 -47 -10 -2 -38 -8 -63 -14 -36 -9 -48 -17 -55 -38 -9 -23
-6 -34 18 -69 16 -24 33 -43 38 -43 6 0 10 -6 10 -13 0 -21 34 -47 61 -47 14
0 36 10 49 23 14 12 26 21 27 20 2 -2 12 6 23 17 11 11 17 20 14 20 -3 0 1 7
9 15 9 8 17 18 19 22 1 5 39 35 83 67 44 33 92 71 108 84 15 14 27 22 27 17 0
-4 9 0 20 10 28 25 25 57 -7 89 -41 42 -55 46 -88 29z"/>
<path d="M2295 4158 c-21 -12 -59 -48 -50 -48 3 0 -4 -9 -15 -20 -11 -11 -20
-29 -20 -40 0 -11 -4 -20 -8 -20 -4 0 -9 -12 -10 -27 -1 -16 -19 -64 -41 -108
-21 -44 -51 -116 -65 -160 -15 -44 -30 -87 -33 -95 -3 -8 -8 -24 -10 -35 -2
-11 -8 -21 -13 -23 -6 -2 -10 -10 -10 -18 0 -8 -4 -14 -10 -14 -5 0 -10 -7
-10 -15 0 -7 -8 -19 -17 -24 -10 -6 -14 -11 -9 -11 5 0 4 -6 -2 -13 -11 -12
-16 -47 -14 -80 2 -16 11 -18 75 -16 85 2 109 10 144 45 23 23 26 36 30 112 3
48 14 114 25 147 11 33 22 68 23 78 2 9 7 23 12 30 4 6 8 17 9 22 1 6 14 46
29 90 15 44 28 85 30 90 1 6 7 22 13 38 23 54 23 80 0 104 -24 26 -26 26 -53
11z"/>
<path d="M2001 3293 c-5 -10 -11 -40 -14 -68 -2 -27 -10 -63 -17 -80 -7 -16
-14 -32 -15 -35 -1 -3 -14 -32 -29 -65 -20 -43 -30 -87 -37 -152 -9 -100 -6
-123 20 -124 9 0 25 -2 36 -5 49 -10 82 -12 92 -6 6 4 13 36 14 72 1 36 6 79
10 95 4 17 10 48 12 70 3 22 11 60 19 85 8 25 15 87 17 138 l3 92 -51 0 c-38
0 -53 -4 -60 -17z"/>
</g>
</svg>
